Fly_normalized_Motion_pl04
version=1
nRows=24
nColumns=43
inDegrees=yes
endheader
time		pelvis_tilt		pelvis_list		pelvis_rotation		pelvis_tx		pelvis_ty		pelvis_tz		hip_flexion_r		hip_adduction_r		hip_rotation_r		knee_angle_r		ankle_angle_r		subtalar_angle_r		mtp_angle_r		hip_flexion_l		hip_adduction_l		hip_rotation_l		knee_angle_l		ankle_angle_l		subtalar_angle_l		mtp_angle_l		lumbar_extension		lumbar_bending		lumbar_rotation		neck_flexion		neck_lateral_bending		neck_rotation		arm_flex_r		arm_add_r		arm_rot_r		elbow_flex_r		pro_sup_r		wrist_flex_r		wrist_dev_r		hand_finger_flex_r		arm_flex_l		arm_add_l		arm_rot_l		elbow_flex_l		pro_sup_l		wrist_flex_l		wrist_dev_l		hand_finger_flex_l		
2.773232		3.583661		-10.581578		95.748783		-0.012955		1.505164		0.952035		50.949059		-3.676756		-8.806936		-53.361254		-14.969835		11.241352		29.564497		49.096292		-9.301888		-4.551561		-58.998001		-15.087844		-0.898279		16.370621		-30.076907		4.575417		3.482113		-2.940260		8.108062		-4.852291		-3.247286		-26.020041		-13.574269		64.280977		124.289625		3.034384		-4.089224		-37.600183		-24.211627		-57.847341		-15.314067		84.313925		126.094826		-3.049596		-4.637227		-23.485369		
2.777197		3.680935		-10.308287		95.982787		-0.013262		1.497052		0.943051		49.942844		-3.644825		-9.127329		-51.495650		-15.209585		11.026309		29.466472		48.240675		-9.385395		-5.099517		-56.995145		-16.022473		-0.043852		16.130557		-30.011865		4.772639		2.892608		-2.899248		7.848202		-4.998871		-5.756979		-26.112882		-13.407675		64.550751		123.964469		2.553839		-4.203373		-37.658348		-31.265172		-57.224373		-20.158778		85.459589		126.767650		-3.432706		-5.390302		-23.509813		
2.781162		3.582680		-10.166766		96.143718		-0.014970		1.488651		0.933941		49.100690		-3.866524		-9.385429		-49.749871		-15.336617		11.315793		29.439984		47.332537		-8.897026		-5.212674		-54.808194		-16.681374		0.405167		16.023161		-29.512462		4.933643		3.235565		-4.314628		7.752701		-4.961063		-9.311770		-26.739077		-13.805092		64.876454		123.841190		2.242132		-4.335648		-37.760569		-35.000259		-57.176729		-21.338501		85.743890		126.979020		-3.490981		-5.693755		-23.478372		
2.785126		3.521641		-10.074234		96.328593		-0.016626		1.480111		0.924656		48.280722		-4.080893		-9.775400		-47.999398		-15.328408		11.524957		29.424884		46.427675		-8.509486		-5.492370		-52.546893		-17.333469		0.864828		15.937595		-28.920307		5.168283		3.585613		-5.587626		7.570916		-5.142312		-12.883790		-27.087283		-14.438800		65.186984		123.683845		1.908861		-4.457128		-37.877998		-38.477621		-57.166971		-22.136985		85.788649		127.103138		-3.586154		-5.928781		-23.465298		
2.789091		3.472783		-9.583629		96.538606		-0.016995		1.471340		0.915393		47.127988		-4.080772		-10.106937		-46.426970		-15.510004		11.286481		29.377623		45.295409		-8.319511		-5.679144		-50.595550		-18.156091		2.061962		15.884442		-28.892225		5.231600		3.282179		-6.319144		7.059508		-5.550957		-15.840079		-26.878514		-14.898422		65.505390		123.192245		1.616379		-4.745476		-37.829076		-44.615839		-56.481780		-25.745513		86.713692		127.190572		-4.484078		-6.627970		-23.568630		
2.793056		3.318075		-9.163754		96.664495		-0.018320		1.462516		0.906215		46.025887		-4.325327		-10.635619		-44.837160		-15.596668		11.234071		29.328104		44.221995		-8.028032		-6.175042		-48.778198		-18.671436		2.808734		15.852393		-28.685902		5.305185		2.901082		-7.606372		7.090546		-5.107837		-18.907376		-27.308914		-14.644060		66.062888		122.901286		1.420274		-5.161500		-37.770900		-49.967474		-55.534379		-28.562762		87.257996		127.373362		-4.954183		-7.135309		-23.480526		
2.797020		3.385327		-8.794546		96.758693		-0.018674		1.453476		0.896762		44.946653		-4.126250		-10.975603		-43.161629		-15.829145		10.856957		29.272122		43.095949		-7.969669		-6.403214		-46.688643		-19.223988		3.579604		15.839150		-28.368537		5.415556		2.590091		-8.701789		6.762815		-5.021387		-21.392436		-27.343450		-14.504745		65.718513		122.598893		1.250001		-5.386727		-37.695858		-55.517538		-54.342168		-31.546553		87.884519		127.556184		-5.601344		-7.706310		-23.449127		
2.800985		3.307981		-8.511263		96.748882		-0.019379		1.444309		0.887548		43.950526		-4.179581		-11.551799		-41.454606		-15.965569		10.692012		29.197747		42.009531		-7.822065		-6.901379		-44.606316		-19.583372		4.141116		15.858734		-27.982995		5.387143		2.156529		-9.892079		6.834801		-4.353831		-23.978759		-27.748284		-13.882682		65.783143		122.355331		1.044155		-5.778996		-37.612365		-60.518980		-52.774466		-34.098098		88.302974		127.883375		-6.012757		-8.204677		-23.300406		
2.804949		3.343169		-8.331769		96.860925		-0.020064		1.434642		0.878410		43.104251		-4.201015		-12.240944		-39.831465		-16.070051		10.670340		29.168315		41.143648		-7.740259		-7.414450		-42.667294		-20.024430		4.439804		15.824712		-27.438567		5.563005		2.207294		-11.254353		6.418413		-4.557240		-27.295859		-27.839170		-14.114260		66.216022		122.245969		0.794026		-6.124220		-37.654763		-64.409234		-51.719445		-35.638092		88.363752		128.084916		-6.420632		-8.585567		-23.373798		
2.808914		3.385021		-8.207550		96.813488		-0.020891		1.424958		0.869139		42.282221		-4.118772		-12.777269		-38.104117		-16.110247		10.613358		29.138944		40.246332		-7.659923		-7.754243		-40.639813		-20.322645		4.743600		15.806257		-26.888416		5.694288		2.167290		-12.241252		6.073820		-4.714441		-30.178432		-27.896078		-14.270502		66.334819		122.201345		0.650083		-6.395984		-37.628287		-68.341135		-50.377965		-36.893404		88.439228		128.383745		-6.778443		-9.093101		-23.477500		
2.812879		3.415200		-7.973786		96.852127		-0.021383		1.414973		0.859659		41.417555		-4.016802		-13.213598		-36.573262		-16.185004		10.558605		29.096079		39.229938		-7.588161		-8.155209		-38.622350		-20.568170		5.099193		15.809753		-26.427820		5.771526		1.956788		-13.229185		5.852797		-4.724248		-32.965424		-27.884662		-14.161591		66.389021		122.214982		0.550313		-6.747457		-37.515812		-72.384217		-48.737422		-38.417566		88.567139		128.897939		-7.178698		-9.774956		-23.635880		
2.816843		3.317913		-7.727005		96.685393		-0.021962		1.405130		0.850304		40.535688		-4.005112		-13.624621		-34.986764		-16.167305		10.494751		29.038642		38.244589		-7.449961		-8.502605		-36.840079		-20.737182		5.454102		15.838430		-26.077544		5.650146		1.661721		-14.024212		5.862022		-4.551516		-35.352643		-27.990622		-13.986417		66.215688		122.288210		0.414894		-7.090016		-37.328804		-76.245230		-46.882087		-39.719407		88.447000		129.705119		-7.396735		-10.530269		-23.794003		
2.820808		3.365711		-7.693688		96.828362		-0.022784		1.394748		0.841232		39.897699		-3.926574		-13.921969		-33.417362		-16.116525		10.702297		29.013247		37.385803		-7.274855		-8.878716		-34.617735		-20.845107		5.538143		15.813759		-25.453876		5.801176		1.532465		-14.841879		5.595836		-4.540177		-38.417219		-27.909607		-14.184995		66.468632		122.325527		0.149727		-7.423618		-37.327973		-79.409175		-45.325751		-40.530635		88.395074		130.175198		-7.555586		-11.015186		-23.904187		
2.824773		3.355195		-7.564023		96.825182		-0.023412		1.384139		0.832001		39.210977		-3.888111		-14.269349		-31.985762		-16.118990		10.885179		28.985785		36.521043		-7.112032		-9.117583		-32.710554		-20.969606		5.609213		15.790675		-24.922137		5.845485		1.428266		-15.776852		5.379407		-4.558529		-41.253957		-27.679679		-14.401257		66.549180		122.393221		-0.145725		-7.753496		-37.309753		-82.633819		-43.758374		-41.275393		88.187089		130.791957		-7.623301		-11.554961		-23.992859		
2.828737		3.290294		-7.259881		96.846685		-0.023754		1.373630		0.822676		38.332020		-3.863168		-14.557304		-30.583870		-16.242659		11.039686		28.941495		35.542007		-6.948783		-9.353578		-30.962390		-21.122021		5.656001		15.779555		-24.510607		5.759925		1.357890		-17.156513		5.300310		-4.538821		-44.004104		-27.341592		-14.559774		66.392490		122.568880		-0.537669		-8.204680		-37.210017		-85.729675		-42.191740		-42.229362		87.983261		131.887783		-7.534840		-12.283667		-24.050338		
2.832702		3.293378		-7.056886		96.848860		-0.024351		1.362921		0.813352		37.545229		-3.755362		-14.667829		-29.121088		-16.292821		11.159584		28.892480		34.588151		-6.800566		-9.588784		-29.052139		-21.188363		5.655088		15.782109		-24.028759		5.779606		1.302030		-18.141143		5.329067		-4.538549		-46.593774		-27.042782		-14.733932		66.062981		122.763642		-0.926186		-8.604575		-37.075216		-88.467586		-40.582439		-42.903758		87.583997		133.070113		-7.261213		-12.848054		-24.040161		
2.836667		3.225587		-6.925660		96.867416		-0.024871		1.351986		0.804056		36.897400		-3.750799		-14.709370		-27.801966		-16.147790		11.314893		28.870873		34.057320		-6.634349		-9.694012		-27.905173		-21.238061		5.624915		15.781197		-23.540335		5.743853		1.282519		-18.628814		5.261905		-4.592077		-49.068104		-26.618595		-14.841858		65.583703		122.847102		-1.096241		-8.721018		-37.031047		-90.680653		-39.107440		-43.096729		86.892327		133.635592		-7.036582		-12.992742		-23.988370		
2.840631		3.324372		-6.597066		96.796475		-0.024990		1.341240		0.794495		35.910098		-3.516732		-14.988813		-26.264097		-16.405654		11.453036		28.808529		32.792367		-6.685225		-10.031675		-25.678350		-21.472885		5.459209		15.841782		-23.031243		5.764924		1.291095		-20.900678		5.247963		-4.697931		-51.772399		-26.048750		-15.318087		65.516088		123.093426		-1.646331		-9.285407		-36.865839		-93.427569		-37.332150		-43.979045		86.794335		135.406206		-6.468355		-13.517344		-23.783345		
2.844596		3.358948		-6.316415		96.758460		-0.025256		1.330317		0.784923		35.077441		-3.327458		-14.941741		-24.944220		-16.386935		11.536841		28.729994		31.839631		-6.678708		-10.355951		-24.036831		-21.586988		5.328394		15.986894		-22.654876		5.781391		1.200446		-21.803008		5.361171		-4.771760		-54.001045		-25.509670		-15.633906		64.934542		123.366242		-2.036606		-9.612075		-36.544916		-95.535299		-35.656728		-44.331255		86.197155		137.340470		-5.613671		-13.727603		-23.504045		
2.848561		3.467498		-6.256728		96.791923		-0.025651		1.318672		0.775837		34.575021		-3.161184		-14.986315		-23.779403		-16.339366		11.529526		28.704975		31.236340		-6.683301		-10.530152		-22.516853		-21.624518		5.160572		16.022814		-22.085151		5.881971		1.123737		-22.484663		5.390723		-4.825893		-56.385778		-24.946071		-16.061786		64.634198		123.386680		-2.281093		-9.682661		-36.516158		-97.455787		-33.900953		-44.507345		85.548218		137.828811		-5.395499		-13.734371		-23.428500		
2.852525		3.394861		-6.105567		96.868190		-0.026483		1.307151		0.767001		34.057017		-3.219574		-14.953796		-22.823222		-16.167225		11.538248		28.691851		30.950950		-6.533685		-10.628468		-21.891485		-21.692251		5.048440		16.039864		-21.729195		5.896191		1.171274		-22.868945		5.393165		-4.820915		-58.511428		-24.408860		-16.178202		63.933504		123.415434		-2.325201		-9.610338		-36.480809		-98.971263		-32.589434		-44.511623		84.620522		138.129215		-5.156596		-13.638037		-23.340079		
2.856490		3.525566		-5.854074		96.851561		-0.026962		1.295868		0.757482		33.197591		-2.984288		-15.111856		-21.492986		-16.432545		10.995102		28.642194		30.044298		-6.601291		-10.999456		-20.262892		-21.945621		4.422283		16.105916		-21.197453		6.081454		1.265736		-24.951485		5.421012		-4.622118		-60.873279		-23.636687		-16.837302		63.553166		123.558701		-2.656078		-9.889932		-36.353766		-100.481984		-31.114928		-44.792419		83.920434		139.111921		-4.562233		-13.704179		-23.050366		
2.860455		3.646867		-5.691190		96.805796		-0.027319		1.284267		0.748201		32.463307		-2.734962		-15.178948		-20.182232		-16.741997		10.301687		28.581228		29.166992		-6.628237		-11.269138		-18.474705		-22.046695		3.617891		16.174252		-20.665053		6.224112		1.329030		-26.271326		5.400034		-4.551579		-63.014511		-22.824695		-17.606170		63.059700		123.797129		-2.941783		-10.250201		-36.169357		-101.758860		-29.606133		-45.011317		83.084272		139.997616		-3.967263		-13.734782		-22.787006		
2.864419		3.561222		-5.469812		96.816244		-0.027841		1.272467		0.739674		31.910532		-2.748377		-15.129639		-19.279777		-16.747733		9.975700		28.532501		28.725055		-6.503156		-11.358842		-17.710732		-22.148209		3.149918		16.231334		-20.409619		6.187078		1.386704		-26.725401		5.330631		-4.567145		-64.787846		-22.100472		-17.906900		62.311666		124.029163		-2.983843		-10.414887		-35.966126		-102.918082		-28.479600		-45.009554		82.154556		140.589681		-3.520113		-13.711980		-22.625992		
